<?xml version="1.0" encoding="UTF-8"?>
<svg width="497px" height="1141px" viewBox="0 0 497 1141" version="1.1" xmlns="http://www.w3.org/2000/svg" xmlns:xlink="http://www.w3.org/1999/xlink">
    <title>7F584415-E557-4F51-A840-925B1C07D0FE</title>
    <g id="Home" stroke="none" stroke-width="1" fill="none" fill-rule="evenodd">
        <g id="Home---Desktop-Layout" transform="translate(-1103.000000, -1337.000000)" fill="#F5F5F5">
            <path d="M1482.6212,2400.4002 L1480.9212,2402.1002 C1526.9212,2425.2002 1575.0212,2443.7002 1624.7212,2457.3002 C1625.3212,2457.6992 1625.7212,2458.1002 1626.1212,2458.6992 C1627.6212,2460.9992 1627.0212,2464.1002 1624.7212,2465.6002 L1624.7212,2465.6002 L1601.3212,2477.3002 L1594.6212,2477.3002 C1558.5212,2465.3002 1523.3212,2450.8002 1489.3212,2433.8002 L1489.3212,2433.8002 L1484.3212,2428.8002 L1475.9212,2405.4002 C1475.5212,2403.5002 1476.1212,2401.6002 1477.6212,2400.4002 L1477.6212,2400.4002 L1482.6212,2400.4002 Z M1447.5208,2330.2004 C1489.5208,2358.3004 1534.3208,2381.8004 1581.3208,2400.3994 L1581.3208,2400.3994 L1584.6208,2400.3994 L1599.6208,2425.5004 C1600.5208,2427.1004 1600.5208,2429.0004 1599.6208,2430.5004 L1599.6208,2430.5004 L1596.3208,2430.5004 L1593.0208,2435.5004 C1540.8208,2417.2004 1490.9208,2392.9994 1444.1208,2363.6004 C1442.0208,2361.9994 1440.8208,2359.4994 1440.8208,2356.8994 L1440.8208,2356.8994 L1440.8208,2335.2004 C1440.4208,2333.3004 1441.0208,2331.3994 1442.5208,2330.2004 L1442.5208,2330.2004 Z M1447.421,2271.7002 L1452.421,2273.4002 C1482.521,2295.6002 1514.321,2315.2002 1547.721,2331.9002 C1549.821,2332.6002 1551.221,2334.7002 1551.021,2336.9002 L1551.021,2336.9002 L1551.021,2360.3002 L1546.021,2360.3002 C1510.421,2343.6992 1476.321,2324.1992 1444.021,2301.8002 C1441.521,2299.9002 1440.221,2296.6002 1440.821,2293.4002 L1440.821,2293.4002 L1444.121,2275.0002 L1447.421,2271.7002 Z M1407.3209,2173.0004 C1454.0209,2220.2004 1508.2209,2259.2004 1567.8209,2288.3994 C1569.9209,2289.1004 1571.3209,2291.2004 1571.1209,2293.3994 L1571.1209,2293.3994 L1571.1209,2318.5004 L1569.4209,2318.5004 L1566.1209,2320.2004 C1506.0209,2292.3994 1450.7209,2255.1004 1402.2209,2209.8004 C1400.2209,2208.2004 1399.0209,2205.7004 1399.0209,2203.1004 L1399.0209,2203.1004 L1399.0209,2178.0004 C1398.9209,2175.8004 1400.2209,2173.7004 1402.3209,2173.0004 L1402.3209,2173.0004 Z M1392.2203,2087.8 C1435.6213,2145.5 1490.2203,2193.9 1552.7203,2229.9 C1554.9213,2231.3 1555.7203,2234.3 1554.4213,2236.6 L1554.4213,2236.6 L1546.0213,2251.6 L1539.3213,2251.6 C1478.7203,2217.6 1424.9213,2172.9 1380.5213,2119.5 C1379.1213,2117.6 1378.5203,2115.2 1378.9213,2112.8 L1378.9213,2112.8 L1383.9213,2091.1 L1387.2203,2087.8 Z M1602.9208,1729.8004 C1665.5218,1729.1004 1725.9208,1752.3994 1771.8208,1795.0004 C1773.3208,1796.2004 1773.9208,1798.2004 1773.5208,1800.0004 L1773.5208,1800.0004 L1773.5208,1803.3004 L1756.8208,1813.3004 L1750.1208,1813.3004 L1750.1208,1813.5004 C1709.9208,1776.8004 1657.4208,1756.5004 1603.0208,1756.7004 C1548.9208,1757.1004 1496.9208,1778.0004 1457.5208,1815.2004 C1419.8208,1850.1004 1398.5208,1899.3004 1399.0208,1950.6004 C1399.6208,1990.1004 1413.1208,2028.2004 1437.5208,2059.3004 C1476.0208,2110.2004 1524.4208,2152.8004 1579.6208,2184.7004 L1579.6208,2184.7004 L1579.6208,2188.0004 C1580.0208,2189.8994 1579.4208,2191.8004 1577.9208,2193.0004 L1577.9208,2193.0004 L1564.5208,2206.3994 L1557.8218,2206.3994 C1501.1208,2174.5004 1451.2208,2131.8994 1410.7208,2081.0004 C1382.9208,2045.1004 1367.6208,2001.0004 1367.2208,1955.6004 C1366.3218,1896.1004 1390.6208,1839.0004 1434.1208,1798.3994 C1478.8218,1755.8994 1538.0208,1731.8994 1599.6208,1731.5004 L1599.6208,1731.5004 L1602.9208,1731.5004 Z M1603.021,1776.8002 C1653.921,1777.3002 1702.521,1797.7002 1738.421,1833.6002 C1740.221,1835.3002 1740.821,1837.9002 1740.121,1840.3002 L1740.121,1840.3002 L1730.121,1855.3002 L1721.721,1855.3002 C1690.621,1823.1002 1647.721,1804.9002 1603.021,1805.1002 L1603.021,1805.1002 L1599.721,1805.1002 C1558.821,1805.3002 1519.421,1820.8002 1489.321,1848.6002 C1460.221,1875.2002 1443.821,1912.9002 1444.221,1952.3002 C1444.621,1982.0002 1454.521,2010.7002 1472.621,2034.2002 C1498.821,2067.6002 1529.821,2096.9002 1564.621,2121.1002 C1566.021,2122.4002 1566.621,2124.3002 1566.221,2126.2002 L1566.221,2126.2002 L1561.221,2144.6002 L1557.921,2147.9002 L1552.921,2147.9002 C1514.121,2121.1002 1479.621,2088.4002 1450.921,2050.9002 C1428.821,2022.7002 1416.521,1988.1002 1415.821,1952.3002 C1415.521,1905.4002 1434.921,1860.5002 1469.321,1828.6002 C1504.721,1795.5002 1551.321,1777.0002 1599.721,1776.8002 L1599.721,1776.8002 Z M1603.0205,1821.79866 C1625.6215,1821.7001 1647.9205,1826.8001 1668.2205,1836.8001 C1677.9205,1841.7001 1686.9205,1847.9001 1695.0205,1855.2001 L1695.0205,1855.2001 L1735.1215,1888.6001 C1736.6215,1890.5001 1737.2205,1892.9001 1736.8205,1895.3001 L1736.8205,1895.3001 L1736.8205,1920.4001 C1736.3205,1922.0001 1735.1215,1923.3001 1733.5205,1923.7001 L1733.5205,1923.7001 L1728.5205,1923.7001 L1678.3205,1876.9001 L1658.2205,1861.9001 C1642.0205,1854.1001 1624.3205,1850.1001 1606.4205,1850.2001 L1606.4205,1850.2001 L1604.7205,1850.2001 C1576.2205,1850.2001 1548.7205,1861.0001 1527.8205,1880.3001 C1507.4205,1898.6001 1495.8205,1924.8001 1496.0205,1952.2001 C1496.2205,1972.8001 1503.3205,1992.8001 1516.1215,2009.0001 C1543.2205,2043.3001 1576.0205,2072.7001 1613.1215,2095.9001 C1614.6215,2097.1001 1615.2205,2099.1001 1614.8205,2100.9001 L1614.8205,2100.9001 L1611.5205,2104.2001 L1591.4205,2112.6001 L1586.4205,2112.6001 C1550.6215,2089.0001 1519.0215,2059.6001 1492.6215,2025.9001 C1475.8205,2005.0001 1466.4205,1979.1001 1465.8205,1952.3001 C1465.2205,1917.6001 1479.1215,1884.2001 1504.3205,1860.3001 C1530.6215,1835.7001 1565.2205,1821.9001 1601.3205,1821.79866 L1601.3205,1821.79866 Z M1603.0207,1867.1 C1625.2207,1867.5 1646.5207,1875.8 1663.2207,1890.5 L1663.2207,1890.5 L1711.7207,1935.6 C1712.7207,1936.5 1713.3217,1937.7 1713.4207,1938.9 L1713.4207,1938.9 L1713.4207,1942.3 L1713.3207,1942.3 L1698.3207,1954 L1691.6207,1954 L1644.8207,1912.2 C1633.4207,1901.7 1618.5207,1895.8 1603.0207,1895.5 L1603.0207,1895.5 L1599.7207,1895.5 C1584.2207,1895.6 1569.2207,1901.6 1557.9207,1912.2 C1547.2207,1922.1 1541.1207,1936.1 1541.2207,1950.7 C1541.4207,1962.3 1545.6207,1973.5 1552.9207,1982.5 C1578.0207,2012 1607.9207,2036.9 1641.5207,2056.1 L1641.5207,2056.1 L1641.5207,2059.4 L1648.2207,2084.5 C1648.6207,2086.4 1648.0207,2088.3 1646.5207,2089.5 L1646.5207,2089.5 L1641.5207,2089.5 C1599.2207,2066.9 1561.7207,2036.2 1531.1207,1999.2 C1519.7207,1985.6 1513.2207,1968.5 1512.71988,1950.7 C1512.6207,1928.6 1521.7207,1907.4 1537.8217,1892.2 C1554.5207,1876.2 1576.6207,1867.3 1599.7207,1867.1 L1599.7207,1867.1 Z M1564.6209,1948.9001 C1565.5209,1928.6001 1582.7209,1912.9001 1603.0209,1913.8001 C1611.5209,1914.0001 1619.7209,1917.0001 1626.4209,1922.2001 L1626.4209,1922.2001 L1674.9209,1960.7001 C1676.3209,1961.9001 1677.0209,1963.8001 1676.5209,1965.7001 L1676.5209,1965.7001 L1669.8209,1984.1001 L1666.5209,1987.4001 L1661.5209,1987.4001 L1608.0209,1940.6001 L1601.3209,1940.6001 C1596.4209,1940.5001 1592.1209,1944.1001 1591.3209,1949.0001 L1591.3209,1949.0001 L1594.6209,1955.7001 C1594.6209,1955.7001 1633.1209,1990.8001 1656.5209,2010.9001 C1658.0209,2012.1001 1658.6209,2014.1001 1658.2209,2015.9001 L1658.2209,2015.9001 L1658.2209,2019.2001 L1641.5209,2029.2001 L1634.8209,2029.2001 L1576.3209,1975.7001 C1569.5209,1969.0001 1565.4209,1960.1001 1564.6209,1950.6001 L1564.6209,1950.6001 Z M1603.0207,1684.8 C1645.7207,1684.8 1687.9207,1693.9 1726.7207,1711.6 C1762.9207,1727.6 1795.3207,1751 1822.0207,1780.2 C1823.7207,1782.1 1823.7207,1785 1822.0207,1786.9 L1822.0207,1786.9 L1810.3207,1801.9 L1803.6207,1801.9 C1779.6207,1774.2 1750.0207,1751.9 1716.7207,1736.7 C1681.5207,1721 1643.3217,1713 1604.7207,1713.3 L1604.7207,1713.3 L1601.4207,1713.3 C1547.5207,1713.9 1495.0207,1730.8 1450.9207,1761.8 C1410.3207,1788.5 1378.8207,1827 1360.6207,1872.2 L1360.6207,1872.2 L1355.5207,1875.4 L1352.2207,1872.1 L1345.5207,1843.7 C1345.2207,1841.3 1345.8207,1839 1347.2207,1837 C1354.4207,1823.5 1362.8207,1810.6 1372.3207,1798.5 C1389.1207,1775.4 1409.4207,1755.1 1432.5207,1738.3 C1481.6207,1704.1 1539.9207,1685.4 1599.7207,1684.8 L1599.7207,1684.8 Z M1603.0207,1638.0009 C1688.0207,1637.5009 1770.2207,1668.5009 1833.7207,1724.8999 L1833.7207,1724.8999 L1835.4207,1724.8999 C1836.3207,1727.0009 1836.3207,1729.5009 1835.4207,1731.5999 L1835.4207,1731.5999 L1835.4207,1756.6999 C1835.5207,1758.8999 1834.2207,1761.0009 1832.1207,1761.6999 L1832.1207,1761.6999 L1827.1207,1761.6999 C1767.2207,1702.0999 1685.9207,1669.0009 1601.4207,1669.6999 L1601.4207,1669.6999 L1596.4207,1669.6999 C1541.9207,1670.2999 1488.4207,1684.6999 1440.9207,1711.5009 C1397.2207,1735.8999 1360.4207,1771.0009 1333.9207,1813.5009 L1333.9207,1813.5009 L1327.1207,1813.5009 L1312.1207,1805.0999 L1312.1207,1798.3999 C1311.7207,1797.2999 1311.7207,1796.0999 1312.1207,1795.0999 C1341.0207,1748.5009 1381.3207,1709.8999 1429.1207,1683.0999 C1480.7207,1654.0999 1538.8207,1638.5999 1598.0207,1638.0009 L1598.0207,1638.0009 Z M1604.7208,1592.9002 C1686.6208,1593.0002 1766.5208,1618.1002 1833.8208,1664.8002 C1836.5208,1666.0002 1838.5208,1668.5002 1838.82618,1671.5002 L1838.82618,1671.5002 L1838.82618,1691.6002 C1838.9208,1693.8002 1837.6208,1695.9002 1835.5208,1696.6002 L1835.5208,1696.6002 L1830.5208,1696.6002 C1765.6208,1647.4002 1686.2208,1621.0002 1604.8218,1621.4002 L1604.8218,1621.4002 L1599.8218,1621.4002 C1535.0208,1622.5002 1471.7208,1640.3002 1415.9208,1673.2002 C1367.5208,1701.4002 1326.7208,1741.0002 1297.2208,1788.6002 L1297.2208,1788.6002 L1290.3208,1791.8002 L1271.9208,1791.8002 L1266.9208,1788.5002 C1266.0208,1786.9002 1266.0208,1785.0002 1266.9208,1783.5002 C1298.9208,1727.4002 1345.0208,1680.8002 1400.7208,1648.1002 C1461.1208,1612.6992 1529.7208,1593.6992 1599.7208,1592.9002 L1599.7208,1592.9002 Z M1606.3209,1547.6002 C1692.7209,1547.2002 1777.4209,1571.5002 1850.4209,1617.8002 L1850.4209,1617.8002 L1850.4209,1621.1002 C1850.8209,1623.1002 1850.2209,1625.0002 1848.7209,1626.3002 L1848.7209,1626.3002 L1835.3209,1638.0002 L1828.6209,1638.0002 C1760.7209,1596.6002 1682.4209,1575.1002 1602.9209,1576.1002 L1602.9209,1576.1002 L1597.9209,1576.1002 C1524.5219,1576.8002 1452.5209,1596.4002 1388.9209,1632.9002 C1330.3209,1666.1002 1281.4209,1713.9002 1246.8209,1771.7002 L1246.8209,1771.7002 L1238.4209,1771.7002 L1228.4209,1758.3002 C1226.4209,1755.9002 1226.4209,1752.4002 1228.4209,1749.9002 C1265.0209,1691.1002 1315.5209,1642.3002 1375.5209,1607.8002 C1443.3209,1569.1002 1519.8209,1548.3002 1597.9209,1547.6002 L1597.9209,1547.6002 Z M1606.3211,1502.4 C1696.2211,1502.1 1784.5211,1525.7 1862.1211,1571 C1863.6211,1572.2 1864.2211,1574.2 1863.8211,1576 L1863.8211,1576 L1858.8211,1594.4 L1855.5211,1597.7 L1850.5211,1597.7 C1776.2211,1553.5 1691.2211,1530.4 1604.7211,1530.8 L1604.7211,1530.8 L1598.0211,1530.8 C1519.7211,1531.7 1442.7211,1551.8 1373.9211,1589.3 C1310.3211,1624.3 1256.4211,1674.3 1216.7211,1734.9 L1216.7211,1734.9 L1208.3211,1734.9 L1196.6211,1721.5 C1195.1211,1718.9 1195.1211,1715.7 1196.6211,1713.1 C1238.6211,1651.2 1294.8211,1600.2 1360.5211,1564.3 C1433.9211,1524.3 1516.0211,1503.1 1599.6211,1502.4 L1599.6211,1502.4 Z M1586.3209,1460.7001 C1589.9209,1460.4001 1593.2209,1462.4001 1594.7209,1465.7001 L1594.7209,1465.7001 L1601.4209,1480.7001 C1602.3199,1482.3001 1602.3199,1484.2001 1601.4209,1485.7001 L1601.4209,1485.7001 L1596.4209,1485.7001 C1433.6209,1488.1001 1281.6209,1567.5001 1186.8199,1699.7001 L1186.8199,1699.7001 L1181.6209,1699.7001 L1181.6209,1699.8001 L1178.3209,1696.5001 L1169.9209,1679.8001 C1168.9209,1676.9001 1169.5209,1673.7001 1171.6209,1671.4001 C1219.6209,1608.2001 1281.4209,1556.7001 1352.2209,1520.9001 C1425.0209,1484.1001 1504.8209,1463.6001 1586.3209,1460.7001 Z M1574.6209,1412.3 C1577.8209,1411.7 1581.1209,1413 1583.0209,1415.6 L1583.0209,1415.6 L1593.0209,1432.3 C1593.9209,1433.9 1593.9209,1435.8 1593.0209,1437.3 L1593.0209,1437.3 L1588.0209,1440.6 C1544.5209,1442 1501.4209,1448.2 1459.3209,1459 C1417.6209,1469.5 1377.2209,1484.6 1338.9209,1504.1 C1267.4209,1541.8 1205.1209,1594.9 1156.7209,1659.6 L1156.7209,1659.6 L1149.8209,1659.6 L1149.8209,1659.7 L1133.1209,1653 L1129.8209,1649.7 C1128.9209,1648.1 1128.9209,1646.2 1129.8209,1644.7 C1181.7209,1575.5 1248.6209,1518.9 1325.4209,1479.2 C1365.8209,1458.3 1408.4209,1442 1452.5209,1430.7 C1492.5209,1420.5 1533.4209,1414.4 1574.6209,1412.3 Z M1471.0209,1382.3002 L1487.7209,1397.3002 C1489.2209,1398.5002 1489.8209,1400.5002 1489.4209,1402.3002 L1489.4209,1402.3002 L1486.1209,1405.6002 C1411.5209,1419.8002 1340.0209,1447.5002 1275.4209,1487.5002 L1275.4209,1487.5002 L1275.4209,1485.8002 C1213.1209,1524.3002 1158.7209,1574.3002 1114.9209,1632.9002 L1114.9209,1632.9002 L1109.7209,1632.9002 L1109.7209,1633.0002 L1106.4209,1629.7002 L1103.1209,1606.3002 C1102.7209,1603.9002 1103.3209,1601.5002 1104.8209,1599.6002 C1148.6209,1546.0002 1201.2209,1500.2002 1260.3209,1464.2002 C1323.1209,1425.5002 1392.1209,1397.8002 1464.3209,1382.3002 L1464.3209,1382.3002 L1471.0209,1382.3002 Z M1395.6209,1352.1002 C1398.5209,1351.1002 1401.7209,1351.7002 1404.0209,1353.8002 L1404.0209,1353.8002 L1415.7209,1367.2002 C1417.2209,1368.4002 1417.8209,1370.4002 1417.4209,1372.2002 L1417.4209,1372.2002 L1414.1209,1375.5002 C1303.4209,1407.5002 1203.1209,1468.0002 1123.2209,1551.1002 L1123.2209,1551.1002 L1118.2209,1551.1002 L1114.9209,1547.8002 L1111.6209,1526.1002 C1110.9209,1523.6002 1111.6209,1521.1002 1113.0209,1519.3002 C1192.3209,1441.6002 1289.3209,1384.2002 1395.6209,1352.1002 Z M1738.4213,1474.1001 C1777.1203,1483.4001 1814.6203,1496.9001 1850.4213,1514.2001 C1852.7203,1515.0001 1854.6203,1516.9001 1855.4213,1519.2001 L1855.4213,1519.2001 L1860.4213,1540.9001 C1860.8213,1542.8001 1860.2203,1544.7001 1858.7203,1545.9001 L1858.7203,1545.9001 L1853.7203,1545.9001 C1809.5213,1522.5001 1762.2203,1505.6001 1713.3213,1495.7001 L1713.3213,1495.7001 L1710.0213,1492.4001 C1709.5213,1490.6001 1710.2203,1488.7001 1711.6213,1487.5001 L1711.6213,1487.5001 L1731.7203,1474.1001 Z M1302.0207,1337.0001 L1327.1207,1345.4001 C1329.2207,1346.1001 1330.6207,1348.2001 1330.4207,1350.4001 C1330.5207,1352.6001 1329.2207,1354.7001 1327.1207,1355.4001 C1265.2207,1380.5001 1207.3207,1414.3001 1154.9207,1455.7001 L1154.9207,1455.7001 L1148.2207,1455.7001 L1133.2207,1444.0001 L1133.2207,1440.7001 L1134.9207,1437.4001 C1183.9207,1397.2001 1237.8207,1363.5001 1295.4207,1337.1001 L1295.4207,1337.1001 L1302.0207,1337.1001 L1302.0207,1337.0001 Z M1181.6215,1352.0999 L1203.3205,1358.7999 L1206.6215,1362.0999 C1207.0205,1364.0009 1206.4205,1365.8999 1204.9205,1367.0999 C1177.6215,1383.2999 1151.4205,1401.0999 1126.3205,1420.5999 L1126.3205,1420.5999 L1121.3205,1420.5999 L1118.0205,1418.8999 L1114.7205,1400.5009 C1114.1215,1397.2999 1115.4205,1394.0999 1118.1215,1392.1999 L1118.1215,1392.1999 L1174.9205,1352.0999 L1181.6215,1352.0999 Z" id="Combined-Shape"/>
        </g>
    </g>
</svg>